<svg viewBox="0 0 336 77" fill="none" xmlns="http://www.w3.org/2000/svg">
<path d="M60.2747 12.6895H15.8618C12.3577 12.6895 9.51709 15.5301 9.51709 19.0341V63.447C9.51709 66.9511 12.3577 69.7917 15.8618 69.7917H60.2747C63.7787 69.7917 66.6194 66.9511 66.6194 63.447V19.0341C66.6194 15.5301 63.7787 12.6895 60.2747 12.6895Z" stroke="#1E2EDE" stroke-width="6.49697" stroke-linecap="round" stroke-linejoin="round"/>
<path d="M50.7578 6.34473V19.0341" stroke="#1E2EDE" stroke-width="6.49697" stroke-linecap="round" stroke-linejoin="round"/>
<path d="M25.3789 6.34473V19.0341" stroke="#1E2EDE" stroke-width="6.49697" stroke-linecap="round" stroke-linejoin="round"/>
<path d="M48.5689 37.6042L34.9377 51.2356L28.7417 45.0396" stroke="#1E2EDE" stroke-width="6.49697" stroke-linecap="round" stroke-linejoin="round"/>
<path d="M88.353 55.6288V20.1908H112.232V26.3682H95.8455V34.8124H111.004V40.9898H95.8455V49.4514H112.301V55.6288H88.353ZM125.63 56.1306C123.934 56.1306 122.423 55.8364 121.096 55.2481C119.769 54.6482 118.72 53.7658 117.947 52.6006C117.185 51.424 116.805 49.9589 116.805 48.2055C116.805 46.7289 117.076 45.4888 117.618 44.4852C118.16 43.4816 118.898 42.6741 119.833 42.0627C120.767 41.4513 121.828 40.9898 123.017 40.6784C124.216 40.3669 125.474 40.1477 126.789 40.0208C128.335 39.8593 129.581 39.7094 130.527 39.5709C131.472 39.421 132.159 39.2018 132.586 38.9134C133.012 38.625 133.226 38.1982 133.226 37.6329V37.5291C133.226 36.4332 132.88 35.5853 132.188 34.9854C131.507 34.3856 130.538 34.0857 129.281 34.0857C127.954 34.0857 126.898 34.3798 126.114 34.9681C125.33 35.5449 124.811 36.2717 124.557 37.1484L117.739 36.5947C118.085 34.9797 118.766 33.5838 119.781 32.4072C120.796 31.219 122.105 30.3077 123.709 29.6732C125.324 29.0272 127.193 28.7042 129.315 28.7042C130.792 28.7042 132.205 28.8772 133.555 29.2233C134.916 29.5694 136.121 30.1058 137.171 30.8326C138.232 31.5593 139.069 32.4937 139.68 33.6358C140.292 34.7663 140.597 36.1217 140.597 37.7021V55.6288H133.607V51.9431H133.399C132.972 52.7737 132.401 53.5062 131.686 54.1407C130.971 54.7636 130.111 55.2539 129.108 55.6115C128.104 55.9576 126.945 56.1306 125.63 56.1306ZM127.741 51.0433C128.825 51.0433 129.782 50.8299 130.613 50.4031C131.444 49.9647 132.095 49.3764 132.568 48.6381C133.041 47.8998 133.278 47.0634 133.278 46.129V43.3085C133.047 43.4585 132.73 43.5969 132.326 43.7238C131.934 43.8392 131.49 43.9488 130.994 44.0526C130.498 44.1449 130.002 44.2314 129.506 44.3122C129.01 44.3814 128.56 44.4448 128.156 44.5025C127.291 44.6294 126.535 44.8313 125.889 45.1081C125.243 45.385 124.741 45.7599 124.384 46.2329C124.026 46.6943 123.847 47.2711 123.847 47.9632C123.847 48.9669 124.211 49.734 124.937 50.2646C125.676 50.7837 126.61 51.0433 127.741 51.0433ZM168.43 36.6293L161.682 37.0446C161.566 36.4678 161.318 35.9487 160.938 35.4873C160.557 35.0143 160.055 34.6394 159.432 34.3625C158.821 34.0741 158.088 33.9299 157.235 33.9299C156.093 33.9299 155.13 34.1722 154.345 34.6567C153.561 35.1296 153.168 35.7641 153.168 36.5601C153.168 37.1946 153.422 37.731 153.93 38.1693C154.437 38.6077 155.308 38.9595 156.543 39.2249L161.353 40.1939C163.937 40.7245 165.864 41.5782 167.133 42.7548C168.401 43.9315 169.036 45.4773 169.036 47.3922C169.036 49.1341 168.523 50.6626 167.496 51.9777C166.481 53.2928 165.085 54.3195 163.308 55.0578C161.543 55.7845 159.507 56.1479 157.2 56.1479C153.682 56.1479 150.879 55.4154 148.791 53.9503C146.714 52.4737 145.497 50.4665 145.139 47.9286L152.39 47.5479C152.609 48.6208 153.14 49.4398 153.982 50.0051C154.824 50.5588 155.902 50.8357 157.217 50.8357C158.509 50.8357 159.548 50.5876 160.332 50.0916C161.128 49.584 161.532 48.9322 161.543 48.1363C161.532 47.4672 161.249 46.9192 160.696 46.4924C160.142 46.0541 159.288 45.7195 158.135 45.4888L153.532 44.5717C150.936 44.0526 149.004 43.1528 147.735 41.8723C146.478 40.5919 145.849 38.9595 145.849 36.9754C145.849 35.2681 146.31 33.7973 147.233 32.5629C148.168 31.3286 149.477 30.3769 151.161 29.7078C152.857 29.0387 154.841 28.7042 157.114 28.7042C160.471 28.7042 163.112 29.4136 165.039 30.8326C166.977 32.2515 168.107 34.1837 168.43 36.6293ZM178.229 65.5957C177.294 65.5957 176.417 65.5207 175.598 65.3708C174.791 65.2323 174.122 65.0535 173.591 64.8344L175.252 59.3318C176.117 59.5971 176.896 59.7413 177.588 59.7644C178.292 59.7874 178.898 59.6259 179.405 59.2799C179.924 58.9338 180.345 58.3455 180.668 57.5149L181.101 56.3901L171.567 29.0503H179.319L184.821 48.5689H185.098L190.653 29.0503H198.457L188.126 58.5012C187.63 59.9316 186.955 61.1775 186.102 62.2388C185.26 63.3116 184.193 64.1364 182.901 64.7132C181.609 65.3016 180.051 65.5957 178.229 65.5957ZM202.367 55.6288V20.1908H226.246V26.3682H209.86V34.8124H225.018V40.9898H209.86V49.4514H226.316V55.6288H202.367ZM239.436 40.2631V55.6288H232.065V29.0503H239.09V33.7396H239.402C239.99 32.1938 240.976 30.971 242.36 30.0712C243.745 29.1599 245.423 28.7042 247.396 28.7042C249.242 28.7042 250.851 29.108 252.224 29.9155C253.596 30.723 254.663 31.8765 255.425 33.3762C256.186 34.8643 256.567 36.6408 256.567 38.7057V55.6288H249.195V40.0208C249.207 38.3943 248.792 37.1253 247.95 36.214C247.107 35.2911 245.948 34.8297 244.471 34.8297C243.479 34.8297 242.603 35.0431 241.841 35.47C241.091 35.8968 240.503 36.5197 240.076 37.3388C239.661 38.1463 239.448 39.121 239.436 40.2631ZM262.377 55.6288V29.0503H269.523V33.6877H269.8C270.284 32.038 271.098 30.7922 272.24 29.9501C273.382 29.0964 274.697 28.6696 276.185 28.6696C276.554 28.6696 276.952 28.6927 277.379 28.7388C277.806 28.7849 278.181 28.8484 278.504 28.9291V35.47C278.158 35.3661 277.679 35.2738 277.067 35.1931C276.456 35.1123 275.896 35.072 275.389 35.072C274.305 35.072 273.336 35.3085 272.482 35.7814C271.64 36.2429 270.971 36.8889 270.475 37.7194C269.99 38.55 269.748 39.5075 269.748 40.5919V55.6288H262.377ZM293.086 56.1479C290.398 56.1479 288.074 55.5769 286.113 54.4348C284.163 53.2812 282.658 51.6778 281.597 49.6244C280.535 47.5595 280.005 45.1658 280.005 42.4434C280.005 39.6978 280.535 37.2984 281.597 35.245C282.658 33.1801 284.163 31.5766 286.113 30.4346C288.074 29.281 290.398 28.7042 293.086 28.7042C295.774 28.7042 298.093 29.281 300.042 30.4346C302.003 31.5766 303.515 33.1801 304.576 35.245C305.637 37.2984 306.168 39.6978 306.168 42.4434C306.168 45.1658 305.637 47.5595 304.576 49.6244C303.515 51.6778 302.003 53.2812 300.042 54.4348C298.093 55.5769 295.774 56.1479 293.086 56.1479ZM293.121 50.4377C294.344 50.4377 295.365 50.0916 296.184 49.3994C297.003 48.6958 297.62 47.7383 298.035 46.527C298.462 45.3158 298.675 43.9372 298.675 42.3914C298.675 40.8456 298.462 39.4671 298.035 38.2559C297.62 37.0446 297.003 36.0871 296.184 35.3834C295.365 34.6797 294.344 34.3279 293.121 34.3279C291.887 34.3279 290.848 34.6797 290.006 35.3834C289.176 36.0871 288.547 37.0446 288.12 38.2559C287.705 39.4671 287.497 40.8456 287.497 42.3914C287.497 43.9372 287.705 45.3158 288.12 46.527C288.547 47.7383 289.176 48.6958 290.006 49.3994C290.848 50.0916 291.887 50.4377 293.121 50.4377ZM318.332 20.1908V55.6288H310.961V20.1908H318.332ZM331.609 20.1908V55.6288H324.237V20.1908H331.609Z" fill="#1E2EDE"/>
</svg>
